<svg width="12" height="13" viewBox="0 0 12 13" fill="none" xmlns="http://www.w3.org/2000/svg">
<path d="M8.01745 2.00965C8.57977 1.4473 9.47756 1.4248 10.0668 1.94217L10.1388 2.00965L10.4923 2.36321C11.0547 2.92556 11.0772 3.82334 10.5598 4.41253L10.4923 4.48452L4.88616 10.0907C4.80664 10.1702 4.71053 10.2305 4.60514 10.2677L4.52447 10.2911L2.29702 10.8052C1.95563 10.8839 1.64772 10.5982 1.68698 10.2615L1.69679 10.205L2.21082 7.97747C2.23611 7.86791 2.28562 7.76581 2.3553 7.67845L2.41128 7.61582L8.01745 2.00965ZM7.66385 3.77745L3.16909 8.27222L2.85089 9.65107L4.22975 9.33287L8.7245 4.83811L7.66385 3.77745ZM9.43165 2.71676C9.25142 2.53652 8.96779 2.52266 8.77166 2.67517L8.72455 2.71676L8.37095 3.07035L9.4316 4.13101L9.7852 3.77742C9.96544 3.59718 9.9793 3.31356 9.8268 3.11742L9.7852 3.07032L9.43165 2.71676Z" fill="#6B7280"/>
</svg>
